G04 ================== begin FILE IDENTIFICATION RECORD ==================*
G04 Layout Name:  C:/WORK_ORCAD/DA_CONVERTOR/allegro/DA_CONVERTOR.brd*
G04 Film Name:    BOTTOM*
G04 File Format:  Gerber RS274X*
G04 File Origin:  Cadence Allegro 17.2-P019*
G04 Origin Date:  Wed Jul 31 15:49:11 2019*
G04 *
G04 Layer:  ETCH/BOTTOM*
G04 Layer:  PIN/BOTTOM*
G04 Layer:  VIA CLASS/BOTTOM*
G04 *
G04 Offset:    (0.000 0.000)*
G04 Mirror:    No*
G04 Mode:      Positive*
G04 Rotation:  0*
G04 FullContactRelief:  No*
G04 UndefLineWidth:     0.000*
G04 ================== end FILE IDENTIFICATION RECORD ====================*
%FSLAX25Y25*MOIN*%
%IR0*IPPOS*OFA0.00000B0.00000*MIA0B0*SFA1.00000B1.00000*%
%ADD11C,.06*%
%ADD12C,.065*%
%ADD13R,.06X.06*%
%ADD14C,.055*%
%ADD15R,.055X.055*%
%ADD10C,.025*%
%ADD16C,.03937*%
%ADD17C,.019685*%
%ADD19C,.094567*%
%ADD21C,.084567*%
%ADD18C,.089528*%
%ADD20C,.104567*%
G75*
%LPD*%
G75*
G36*
G01X29693Y19685D02*
Y29693D01*
X19685D01*
Y102819D01*
G03Y112772I0J4976D01*
G01Y113319D01*
G03Y122272I0J4476D01*
G01Y122819D01*
G03X22720Y123850I2J4977D01*
G01X55567D01*
X63555Y115862D01*
Y83035D01*
G03X72126Y78169I3944J-3035D01*
G02X72874I374J-149D01*
G03Y81831I4626J1831D01*
G02X72126I-374J149D01*
G03X71445Y83035I-4630J-1823D01*
G01Y119130D01*
X64220Y126354D01*
G02X64504Y127039I284J284D01*
G01X76000D01*
G03X78169Y125374I3998J2962D01*
G02Y124626I-149J-374D01*
G03X81831I1831J-4626D01*
G02Y125374I149J374D01*
G03Y134626I-1831J4626D01*
G02Y135374I149J374D01*
G03X84000Y137039I-1829J4628D01*
G01X86224D01*
X90461Y141276D01*
Y169252D01*
X86752Y172961D01*
X84311D01*
G03X82961Y174311I-4311J-2961D01*
G01Y184256D01*
X79256Y187961D01*
X76811D01*
G03X76673Y181850I-4311J-2959D01*
G01X76681Y181862D01*
X76831Y182012D01*
X77039Y181807D01*
Y174311D01*
G03X84169Y166846I2960J-4310D01*
G01X84177Y166858D01*
X84331Y167008D01*
X84539Y166803D01*
Y155087D01*
G02X83945Y154736I-401J1D01*
G03X83000Y154976I-945J-1739D01*
G01X77000D01*
G03X75024Y153000I0J-1976D01*
G01Y147000D01*
G03X77000Y145024I1976J0D01*
G01X77252D01*
G02X77457Y144276I0J-402D01*
G03X78169Y135374I2544J-4276D01*
G02Y134626I-149J-374D01*
G03X76000Y132961I1829J-4628D01*
G01X66224D01*
X65461Y133724D01*
Y193776D01*
X66224Y194539D01*
X68189D01*
G03X75461Y201811I4311J2961D01*
G01Y205689D01*
G03X69539I-2961J4311D01*
G01Y201811D01*
G03X68189Y200461I2961J-4311D01*
G01X63776D01*
X59539Y196224D01*
Y132004D01*
G02X58854Y131720I-401J1D01*
G01X58835Y131740D01*
X22720D01*
G03X21516Y132421I-3028J-3949D01*
G02Y133169I149J374D01*
G03X19685Y142772I-1831J4627D01*
G01Y245898D01*
X29693D01*
Y255906D01*
X364008D01*
Y245898D01*
X374016D01*
Y132587D01*
G03Y123634I0J-4476D01*
G01Y123087D01*
G03Y113134I0J-4976D01*
G01Y29693D01*
X364008D01*
Y19685D01*
X29693D01*
G37*
%LPC*%
G75*
G36*
G01X170461Y205689D02*
Y201811D01*
G02X164539I-2961J-4311D01*
G01Y205689D01*
G02Y214311I2961J4311D01*
G01Y222780D01*
X164378Y222811D01*
G02X162772Y224748I370J1941D01*
G01Y230252D01*
G02X164748Y232228I1978J-2D01*
G01X170252D01*
G02X172228Y230252I-2J-1978D01*
G01Y224748D01*
G02X170622Y222811I-1976J4D01*
G01X170461Y222780D01*
Y214311D01*
G02Y205689I-2961J-4311D01*
G37*
G36*
G01X193453Y42642D02*
X195071Y44256D01*
Y47303D01*
G03X194516Y47677I-402J3D01*
G02Y57323I-2016J4823D01*
G03X195071Y57697I153J371D01*
G01Y60744D01*
X193453Y62358D01*
X193354Y62343D01*
G02X189539Y71811I-855J5158D01*
G01Y78189D01*
G02X195461I2961J4311D01*
G01Y71811D01*
G02X197657Y66646I-2961J-4309D01*
G01X197642Y66547D01*
X200992Y63193D01*
Y41807D01*
X197642Y38453D01*
X197657Y38354D01*
G02X193354Y42657I-5157J-854D01*
G01X193453Y42642D01*
G37*
G36*
G01X52126Y48169D02*
G02Y51831I-4626J1831D01*
G03X52874I374J149D01*
G02Y48169I4626J-1831D01*
G03X52126I-374J-149D01*
G37*
G36*
G01X236831Y124626D02*
G02X233169I-1831J-4626D01*
G03Y125374I-149J374D01*
G02Y134626I1831J4626D01*
G03Y135374I-149J374D01*
G02X232457Y144276I1832J4626D01*
G03X232252Y145024I-204J346D01*
G01X232000D01*
G02X230024Y147000I0J1976D01*
G01Y153000D01*
G02X232000Y154976I1976J0D01*
G01X238000D01*
G02X239976Y153000I0J-1976D01*
G01Y147000D01*
G02X238000Y145024I-1976J0D01*
G01X237748D01*
G03X237543Y144276I0J-402D01*
G02X239000Y142961I-2540J-4279D01*
G01X243776D01*
X244539Y143724D01*
Y178724D01*
X248776Y182961D01*
X253189D01*
G02Y177039I4311J-2961D01*
G01X251224D01*
X250461Y176276D01*
Y141276D01*
X246224Y137039D01*
X239000D01*
G02X236831Y135374I-3998J2962D01*
G03Y134626I149J-374D01*
G02Y125374I-1831J-4626D01*
G03Y124626I149J-374D01*
G37*
G36*
G01X266831D02*
G02X263169I-1831J-4626D01*
G03Y125374I-149J374D01*
G02Y134626I1831J4626D01*
G03Y135374I-149J374D01*
G02Y144626I1831J4626D01*
G03Y145374I-149J374D01*
G02X266831I1831J4626D01*
G03Y144626I149J-374D01*
G02Y135374I-1831J-4626D01*
G03Y134626I149J-374D01*
G02X269000Y132961I-1829J-4628D01*
G01X283776D01*
X284539Y133724D01*
Y216276D01*
X283776Y217039D01*
X279311D01*
G02Y222961I-4311J2961D01*
G01X286224D01*
X290461Y218724D01*
Y131276D01*
X286224Y127039D01*
X269000D01*
G02X266831Y125374I-3998J2962D01*
G03Y124626I149J-374D01*
G37*
G36*
G01X111831D02*
G02X108169I-1831J-4626D01*
G03Y125374I-149J374D01*
G02Y134626I1831J4626D01*
G03Y135374I-149J374D01*
G02Y144626I1831J4626D01*
G03Y145374I-149J374D01*
G02X111831I1831J4626D01*
G03Y144626I149J-374D01*
G02Y135374I-1831J-4626D01*
G03Y134626I149J-374D01*
G02X114000Y132961I-1829J-4628D01*
G01X116276D01*
X119539Y136224D01*
Y181276D01*
X118776Y182039D01*
X116811D01*
G02X109539Y189311I-4311J2961D01*
G01Y193189D01*
G02X108189Y194539I2961J4311D01*
G01X95744D01*
X92039Y198244D01*
Y216276D01*
X88776Y219539D01*
X76811D01*
G02Y225461I-4311J2961D01*
G01X91224D01*
X97961Y218724D01*
Y200693D01*
X98193Y200461D01*
X108189D01*
G02X115461Y193189I4311J-2961D01*
G01Y189311D01*
G02X116811Y187961I-2961J-4311D01*
G01X121224D01*
X123854Y185335D01*
G03X124539Y185618I284J283D01*
G01Y219307D01*
X124307Y219539D01*
X116811D01*
G02Y225461I-4311J2961D01*
G01X126756D01*
X130461Y221756D01*
Y155693D01*
X143193Y142961D01*
X151000D01*
G02X152457Y144276I3997J-2964D01*
G03X152252Y145024I-204J346D01*
G01X152000D01*
G02X150024Y147000I0J1976D01*
G01Y153000D01*
G02X152000Y154976I1976J0D01*
G01X158000D01*
G02X158945Y154736I0J-1979D01*
G03X159539Y155087I193J352D01*
G01Y166276D01*
X157039Y168776D01*
Y184256D01*
X160744Y187961D01*
X163189D01*
G02X163327Y181850I4311J-2959D01*
G01X163319Y181862D01*
X163169Y182012D01*
X162961Y181807D01*
Y176319D01*
G03X163657Y176043I402J-2D01*
G02X170461Y168189I3844J-3544D01*
G01Y131276D01*
X166224Y127039D01*
X159000D01*
G02X156831Y125374I-3998J2962D01*
G03Y124626I149J-374D01*
G02X153169I-1831J-4626D01*
G03Y125374I-149J374D01*
G02Y134626I1831J4626D01*
G03Y135374I-149J374D01*
G02X151000Y137039I1829J4628D01*
G01X140744D01*
X126146Y151634D01*
G03X125461Y151350I-284J-283D01*
G01Y133776D01*
X118724Y127039D01*
X114000D01*
G02X111831Y125374I-3998J2962D01*
G03Y124626I149J-374D01*
G37*
G36*
G01X221811Y39539D02*
G02Y45461I-4311J2961D01*
G01X224307D01*
X224539Y45693D01*
Y91276D01*
X219539Y96276D01*
Y128189D01*
G02X218657Y128957I2970J4303D01*
G03X217961Y128681I-295J-273D01*
G01Y100744D01*
X214256Y97039D01*
X136224D01*
X130461Y91276D01*
Y50744D01*
X126756Y47039D01*
X111500D01*
G02X102874Y48169I-3999J2961D01*
G03X102126I-374J-149D01*
G02X92874I-4626J1831D01*
G03X92126I-374J-149D01*
G02X82874I-4626J1831D01*
G03X82126I-374J-149D01*
G02Y51831I-4626J1831D01*
G03X82874I374J149D01*
G02X84539Y54000I4628J-1829D01*
G01Y63724D01*
X88776Y67961D01*
X103776D01*
X104539Y68724D01*
Y74831D01*
G03X104354Y75028I-200J-3D01*
G02X102524Y77000I147J1972D01*
G01Y83000D01*
G02X104500Y84976I1976J0D01*
G01X110500D01*
G02X112476Y83000I0J-1976D01*
G01Y77000D01*
G02X110646Y75028I-1978J0D01*
G03X110461Y74831I15J-200D01*
G01Y66276D01*
X106224Y62039D01*
X91224D01*
X90461Y61276D01*
Y54000D01*
G02X92126Y51831I-2962J-3998D01*
G03X92874I374J149D01*
G02X102126I4626J-1831D01*
G03X102874I374J149D01*
G02X111500Y52961I4627J-1831D01*
G01X124307D01*
X124539Y53193D01*
Y93724D01*
X133776Y102961D01*
X211807D01*
X212039Y103193D01*
Y169469D01*
G03X211315Y169705I-401J-1D01*
G02Y175295I-3815J2795D01*
G03X212039Y175531I323J237D01*
G01Y181181D01*
G03X211343Y181457I-402J2D01*
G02X203189Y182039I-3844J3543D01*
G01X198724D01*
X195461Y178776D01*
Y131276D01*
X191224Y127039D01*
X189000D01*
G02X186831Y125374I-3998J2962D01*
G03Y124626I149J-374D01*
G02X183169I-1831J-4626D01*
G03Y125374I-149J374D01*
G02Y134626I1831J4626D01*
G03Y135374I-149J374D01*
G02Y144626I1831J4626D01*
G03Y145374I-149J374D01*
G02X188831Y153177I1831J4627D01*
G03X189539Y153433I307J258D01*
G01Y181224D01*
X196276Y187961D01*
X203189D01*
G02X204539Y189311I4311J-2961D01*
G01Y193189D01*
G02X211343Y201043I2960J4310D01*
G03X212039Y201319I295J273D01*
G01Y206807D01*
X211831Y207012D01*
X211681Y206862D01*
X211673Y206850D01*
G02X203189Y207039I-4174J3149D01*
G01X196276D01*
X192039Y211276D01*
Y239256D01*
X195744Y242961D01*
X197780D01*
X197811Y243122D01*
G02X199748Y244724I1940J-373D01*
G01X205252D01*
G02X207228Y242748I0J-1976D01*
G01Y237252D01*
G02X205252Y235276I-1976J0D01*
G01X199748D01*
G02X198594Y235646I-2J1976D01*
G03X197961Y235319I-233J-327D01*
G01Y213724D01*
X198724Y212961D01*
X203189D01*
G02X211811I4311J-2961D01*
G01X214256D01*
X217961Y209256D01*
Y175531D01*
G03X218685Y175295I401J1D01*
G02Y169705I3815J-2795D01*
G03X217961Y169469I-323J-237D01*
G01Y136319D01*
G03X218657Y136043I402J-2D01*
G02X225461Y128189I3844J-3544D01*
G01Y98724D01*
X230461Y93724D01*
Y43244D01*
X226756Y39539D01*
X221811D01*
G37*
G54D19*
X100000Y170000D03*
X112500Y210000D03*
X257500Y220000D03*
G54D21*
X166500Y240000D03*
X203500Y227500D03*
G54D18*
X47500Y80000D03*
X67500Y50000D03*
X57500Y80000D03*
X87500D03*
X97500D03*
G54D20*
X152500Y37500D03*
Y67500D03*
Y52500D03*
Y82500D03*
X217500D03*
X252500Y42500D03*
Y82500D03*
X270000Y42500D03*
Y82500D03*
X275000Y180000D03*
%LPD*%
G75*
G36*
G01X159000Y132961D02*
G03X156831Y134626I-3998J-2962D01*
G02Y135374I149J374D01*
G03X159000Y137039I-1829J4628D01*
G01X161224D01*
X163854Y139665D01*
G02X164539Y139382I284J-283D01*
G01Y133724D01*
X163776Y132961D01*
X159000D01*
G37*
G36*
G01X189539Y143433D02*
G02X188831Y143177I-401J2D01*
G03X186831Y144626I-3828J-3179D01*
G02Y145374I149J374D01*
G03X188831Y146823I-1828J4628D01*
G02X189539Y146567I307J-258D01*
G01Y143433D01*
G37*
G36*
G01X189209Y133394D02*
G02X188630Y133402I-286J284D01*
G03X186831Y134626I-3631J-3401D01*
G02Y135374I149J374D01*
G03X188831Y136823I-1828J4628D01*
G02X189539Y136567I307J-258D01*
G01Y133724D01*
X189209Y133394D01*
G37*
G36*
G01X211343Y188543D02*
G03X210461Y189311I-3852J-3535D01*
G01Y193189D01*
G03X211343Y193957I-2970J4303D01*
G02X212039Y193681I295J-273D01*
G01Y188819D01*
G02X211343Y188543I-402J-2D01*
G37*
G54D10*
X19685Y19685D03*
Y255906D03*
X374016Y19685D03*
Y255906D03*
G54D11*
X47500Y50000D03*
Y80000D03*
X19685Y107795D03*
Y117795D03*
Y127795D03*
Y137795D03*
X57500Y50000D03*
X67500D03*
X77500D03*
X57500Y80000D03*
X67500D03*
X77500D03*
X87500Y50000D03*
X97500D03*
X107500D03*
X87500Y80000D03*
X97500D03*
X80000Y120000D03*
Y130000D03*
Y140000D03*
X110000Y120000D03*
Y130000D03*
Y140000D03*
Y150000D03*
X155000Y120000D03*
Y130000D03*
Y140000D03*
X185000Y120000D03*
Y130000D03*
Y140000D03*
Y150000D03*
X235000Y120000D03*
Y130000D03*
Y140000D03*
X265000Y120000D03*
Y130000D03*
Y140000D03*
Y150000D03*
X374016Y128110D03*
Y118110D03*
G54D12*
X72500Y185000D03*
Y197500D03*
Y222500D03*
Y210000D03*
X100000Y170000D03*
X80000D03*
X112500Y185000D03*
Y197500D03*
Y222500D03*
Y210000D03*
X152500Y37500D03*
Y67500D03*
Y52500D03*
Y82500D03*
X167500Y172500D03*
Y185000D03*
Y197500D03*
Y210000D03*
X192500Y37500D03*
Y67500D03*
Y52500D03*
Y82500D03*
X217500Y42500D03*
Y82500D03*
X222500Y132500D03*
Y172500D03*
X207500D03*
Y185000D03*
Y197500D03*
Y210000D03*
X252500Y42500D03*
Y82500D03*
X257500Y180000D03*
Y220000D03*
X270000Y42500D03*
Y82500D03*
X275000Y180000D03*
Y220000D03*
G54D13*
X107500Y80000D03*
X80000Y150000D03*
X155000D03*
X235000D03*
G54D14*
X166500Y240000D03*
X203500Y227500D03*
G54D15*
X167500D03*
X202500Y240000D03*
G54D16*
G01X67500Y80000D02*
Y117496D01*
X57201Y127795D01*
X19685D01*
G01X47500Y107500D02*
X37205Y117795D01*
G01D02*
X19685D01*
G01X57500Y80000D02*
Y67500D01*
G01D02*
X60000Y65000D01*
X63563D01*
X67500Y61063D01*
G01D02*
Y50000D01*
G01X47500Y80000D02*
Y107500D01*
G01Y80000D02*
X57500D01*
G01X97500D02*
X87500D01*
G01X97500Y95000D02*
Y80000D01*
G01X100000Y164276D02*
X100287Y163988D01*
Y97787D01*
X97500Y95000D01*
G01X100000Y170000D02*
Y164276D01*
G01X222500Y172500D02*
Y221063D01*
G01D02*
X216063Y227500D01*
G01D02*
X203500D01*
G54D17*
G01X42823Y80000D02*
X47500D01*
G01X19685Y113118D02*
Y117795D01*
G01D02*
Y122472D01*
G01X67500Y45323D02*
Y50000D01*
G01X62823D02*
X67500D01*
G01D02*
X72177D01*
G01X57500Y80000D02*
Y84677D01*
G01Y80000D02*
X62177D01*
G01X47500Y75323D02*
Y80000D01*
G01X72500Y197500D02*
X65000D01*
X62500Y195000D01*
Y132500D01*
X65000Y130000D01*
X80000D01*
G01Y170000D02*
Y183031D01*
X78031Y185000D01*
X72500D01*
G01Y222500D02*
X90000D01*
X95000Y217500D01*
Y199469D01*
X96969Y197500D01*
X112500D01*
G01X72500Y210000D02*
Y197500D01*
G01X87500Y50000D02*
Y62500D01*
X90000Y65000D01*
X105000D01*
X107500Y67500D01*
Y80000D01*
G01X97500Y75323D02*
Y80000D01*
G01D02*
X102177D01*
G01X87500Y75323D02*
Y80000D01*
G01D02*
Y84677D01*
G01X82823Y80000D02*
X87500D01*
G01X80000Y170000D02*
X85528D01*
X87500Y168028D01*
Y142500D01*
X85000Y140000D01*
X80000D01*
G01X100000Y170000D02*
Y174929D01*
G01X95071Y170000D02*
X100000D01*
G01D02*
X104929D01*
G01X207500Y210000D02*
X213031D01*
X215000Y208031D01*
Y101969D01*
X213031Y100000D01*
X135000D01*
X127500Y92500D01*
Y51969D01*
X125531Y50000D01*
X107500D01*
G01X112500Y185000D02*
X120000D01*
X122500Y182500D01*
Y135000D01*
X117500Y130000D01*
X110000D01*
G01X112500Y222500D02*
X125531D01*
X127500Y220531D01*
Y154469D01*
X141969Y140000D01*
X155000D01*
G01X112500Y197500D02*
Y185000D01*
G01Y205071D02*
Y210000D01*
G01D02*
Y214929D01*
G01X107571Y210000D02*
X112500D01*
G01D02*
X117429D01*
G01X167500Y172500D02*
Y132500D01*
X165000Y130000D01*
X155000D01*
G01X167500Y185000D02*
X161969D01*
X160000Y183031D01*
Y170000D01*
X162500Y167500D01*
Y142500D01*
X160000Y140000D01*
X155000D01*
G01X162071Y240000D02*
X166500D01*
G01X192500Y67500D02*
X198031Y61969D01*
Y43031D01*
X192500Y37500D01*
G01Y82500D02*
Y67500D01*
G01X207500Y185000D02*
X197500D01*
X192500Y180000D01*
Y132500D01*
X190000Y130000D01*
X185000D01*
G01X167500Y197500D02*
Y210000D01*
G01D02*
Y227500D01*
G01X166500Y235571D02*
Y240000D01*
G01D02*
Y244429D01*
G01Y240000D02*
X170929D01*
G01X217500Y42500D02*
X225531D01*
X227500Y44469D01*
Y92500D01*
X222500Y97500D01*
Y132500D01*
G01X207500Y167571D02*
Y172500D01*
G01D02*
Y177429D01*
G01X202571Y172500D02*
X207500D01*
G01X222500Y167571D02*
Y172500D01*
G01D02*
X227429D01*
G01X207500Y185000D02*
Y197500D01*
G01X203500Y223071D02*
Y227500D01*
G01X207500Y210000D02*
X197500D01*
X195000Y212500D01*
Y238031D01*
X196969Y240000D01*
X202500D01*
G01X203500Y227500D02*
Y231929D01*
G01X199071Y227500D02*
X203500D01*
G01X257500Y180000D02*
X250000D01*
X247500Y177500D01*
Y142500D01*
X245000Y140000D01*
X235000D01*
G01X252571Y220000D02*
X257500D01*
G01X265000Y130000D02*
X285000D01*
X287500Y132500D01*
Y217500D01*
X285000Y220000D01*
X275000D01*
G01X257500Y215071D02*
Y220000D01*
G01D02*
Y224929D01*
G01Y220000D02*
X262429D01*
G01X374016Y123433D02*
Y128110D01*
G01D02*
Y132787D01*
G01X369339Y128110D02*
X374016D01*
M02*
