G04 ================== begin FILE IDENTIFICATION RECORD ==================*
G04 Layout Name:  C:/WORK_ORCAD/DA_CONVERTOR/allegro/DA_CONVERTOR.brd*
G04 Film Name:    DrillDraw*
G04 File Format:  Gerber RS274X*
G04 File Origin:  Cadence Allegro 17.2-P019*
G04 Origin Date:  Wed Jul 31 15:49:11 2019*
G04 *
G04 Layer:  MANUFACTURING/NCLEGEND-1-2*
G04 Layer:  BOARD GEOMETRY/DESIGN_OUTLINE*
G04 *
G04 Offset:    (0.000 0.000)*
G04 Mirror:    No*
G04 Mode:      Positive*
G04 Rotation:  0*
G04 FullContactRelief:  No*
G04 UndefLineWidth:     0.100*
G04 ================== end FILE IDENTIFICATION RECORD ====================*
%FSLAX25Y25*MOIN*%
%IR0*IPPOS*OFA0.00000B0.00000*MIA0B0*SFA1.00000B1.00000*%
%AMMACRO13*
1,1,.003937,.0125,0.0*
20,1,.003937,.0125,0.0,-.0125,0.0,0.0*
1,1,.003937,-.0125,0.0*
1,1,.003937,0.0,.0125*
20,1,.003937,0.0,.0125,0.0,-.0125,0.0*
1,1,.003937,0.0,-.0125*
%
%ADD13MACRO13*%
%AMMACRO11*
1,1,.003937,-.02,.0125*
20,1,.003937,-.02,.0125,-.019696,.015973,0.0*
1,1,.003937,-.019696,.015973*
20,1,.003937,-.019696,.015973,-.018794,.01934,0.0*
1,1,.003937,-.018794,.01934*
20,1,.003937,-.018794,.01934,-.017321,.0225,0.0*
1,1,.003937,-.017321,.0225*
20,1,.003937,-.017321,.0225,-.015321,.025356,0.0*
1,1,.003937,-.015321,.025356*
20,1,.003937,-.015321,.025356,-.012856,.027821,0.0*
1,1,.003937,-.012856,.027821*
20,1,.003937,-.012856,.027821,-.01,.029821,0.0*
1,1,.003937,-.01,.029821*
20,1,.003937,-.01,.029821,-.00684,.031294,0.0*
1,1,.003937,-.00684,.031294*
20,1,.003937,-.00684,.031294,-.003473,.032196,0.0*
1,1,.003937,-.003473,.032196*
20,1,.003937,-.003473,.032196,0.0,.0325,0.0*
1,1,.003937,0.0,.0325*
20,1,.003937,0.0,.0325,.003473,.032196,0.0*
1,1,.003937,.003473,.032196*
20,1,.003937,.003473,.032196,.00684,.031294,0.0*
1,1,.003937,.00684,.031294*
20,1,.003937,.00684,.031294,.01,.029821,0.0*
1,1,.003937,.01,.029821*
20,1,.003937,.01,.029821,.012856,.027821,0.0*
1,1,.003937,.012856,.027821*
20,1,.003937,.012856,.027821,.015321,.025356,0.0*
1,1,.003937,.015321,.025356*
20,1,.003937,.015321,.025356,.017321,.0225,0.0*
1,1,.003937,.017321,.0225*
20,1,.003937,.017321,.0225,.018794,.01934,0.0*
1,1,.003937,.018794,.01934*
20,1,.003937,.018794,.01934,.019696,.015973,0.0*
1,1,.003937,.019696,.015973*
20,1,.003937,.019696,.015973,.02,.0125,0.0*
1,1,.003937,.02,.0125*
20,1,.003937,.02,.0125,.02,-.0125,0.0*
1,1,.003937,.02,-.0125*
20,1,.003937,.02,-.0125,.019696,-.015973,0.0*
1,1,.003937,.019696,-.015973*
20,1,.003937,.019696,-.015973,.018794,-.01934,0.0*
1,1,.003937,.018794,-.01934*
20,1,.003937,.018794,-.01934,.017321,-.0225,0.0*
1,1,.003937,.017321,-.0225*
20,1,.003937,.017321,-.0225,.015321,-.025356,0.0*
1,1,.003937,.015321,-.025356*
20,1,.003937,.015321,-.025356,.012856,-.027821,0.0*
1,1,.003937,.012856,-.027821*
20,1,.003937,.012856,-.027821,.01,-.029821,0.0*
1,1,.003937,.01,-.029821*
20,1,.003937,.01,-.029821,.00684,-.031294,0.0*
1,1,.003937,.00684,-.031294*
20,1,.003937,.00684,-.031294,.003473,-.032196,0.0*
1,1,.003937,.003473,-.032196*
20,1,.003937,.003473,-.032196,0.0,-.0325,0.0*
1,1,.003937,0.0,-.0325*
20,1,.003937,0.0,-.0325,-.003473,-.032196,0.0*
1,1,.003937,-.003473,-.032196*
20,1,.003937,-.003473,-.032196,-.00684,-.031294,0.0*
1,1,.003937,-.00684,-.031294*
20,1,.003937,-.00684,-.031294,-.01,-.029821,0.0*
1,1,.003937,-.01,-.029821*
20,1,.003937,-.01,-.029821,-.012856,-.027821,0.0*
1,1,.003937,-.012856,-.027821*
20,1,.003937,-.012856,-.027821,-.015321,-.025356,0.0*
1,1,.003937,-.015321,-.025356*
20,1,.003937,-.015321,-.025356,-.017321,-.0225,0.0*
1,1,.003937,-.017321,-.0225*
20,1,.003937,-.017321,-.0225,-.018794,-.01934,0.0*
1,1,.003937,-.018794,-.01934*
20,1,.003937,-.018794,-.01934,-.019696,-.015973,0.0*
1,1,.003937,-.019696,-.015973*
20,1,.003937,-.019696,-.015973,-.02,-.0125,0.0*
1,1,.003937,-.02,-.0125*
20,1,.003937,-.02,-.0125,-.02,.0125,0.0*
1,1,.003937,-.02,.0125*
%
%ADD11MACRO11*%
%AMMACRO12*
1,1,.003937,.025,0.0*
20,1,.003937,.025,0.0,.0125,.021651,0.0*
1,1,.003937,.0125,.021651*
20,1,.003937,.0125,.021651,-.0125,.021651,0.0*
1,1,.003937,-.0125,.021651*
20,1,.003937,-.0125,.021651,-.025,0.0,0.0*
1,1,.003937,-.025,0.0*
20,1,.003937,-.025,0.0,-.0125,-.021651,0.0*
1,1,.003937,-.0125,-.021651*
20,1,.003937,-.0125,-.021651,.0125,-.021651,0.0*
1,1,.003937,.0125,-.021651*
20,1,.003937,.0125,-.021651,.025,0.0,0.0*
1,1,.003937,.025,0.0*
%
%ADD12MACRO12*%
%AMMACRO10*
1,1,.003937,-.02622,-.03748*
20,1,.003937,-.02622,-.03748,.02626,.03752,0.0*
1,1,.003937,.02626,.03752*
1,1,.003937,-.02622,.03752*
20,1,.003937,-.02622,.03752,.02626,-.03748,0.0*
1,1,.003937,.02626,-.03748*
%
%ADD10MACRO10*%
%ADD14C,.003937*%
G75*
%LPD*%
G75*
G54D10*
X19685Y19685D03*
Y255906D03*
X4941Y396909D03*
X374016Y19685D03*
Y255906D03*
G54D11*
X4941Y421909D03*
X72500Y185000D03*
Y197500D03*
Y222500D03*
Y210000D03*
X100000Y170000D03*
X80000D03*
X112500Y185000D03*
Y197500D03*
Y222500D03*
Y210000D03*
X152500Y37500D03*
Y67500D03*
Y52500D03*
Y82500D03*
X167500Y172500D03*
Y185000D03*
Y197500D03*
Y210000D03*
X192500Y37500D03*
Y67500D03*
Y52500D03*
Y82500D03*
X217500Y42500D03*
Y82500D03*
X222500Y132500D03*
Y172500D03*
X207500D03*
Y185000D03*
Y197500D03*
Y210000D03*
X252500Y42500D03*
Y82500D03*
X257500Y180000D03*
Y220000D03*
X270000Y42500D03*
Y82500D03*
X275000Y180000D03*
Y220000D03*
G54D12*
X4941Y446909D03*
X47500Y50000D03*
Y80000D03*
X19685Y107795D03*
Y117795D03*
Y127795D03*
Y137795D03*
X57500Y50000D03*
X67500D03*
X77500D03*
X57500Y80000D03*
X67500D03*
X77500D03*
X87500Y50000D03*
X97500D03*
X107500D03*
X87500Y80000D03*
X97500D03*
X107500D03*
X80000Y120000D03*
Y130000D03*
Y140000D03*
Y150000D03*
X110000Y120000D03*
Y130000D03*
Y140000D03*
Y150000D03*
X155000Y120000D03*
Y130000D03*
Y140000D03*
Y150000D03*
X185000Y120000D03*
Y130000D03*
Y140000D03*
Y150000D03*
X235000Y120000D03*
Y130000D03*
Y140000D03*
Y150000D03*
X265000Y120000D03*
Y130000D03*
Y140000D03*
Y150000D03*
X374016Y128110D03*
Y118110D03*
G54D13*
X4941Y471909D03*
X166500Y240000D03*
X167500Y227500D03*
X203500D03*
X202500Y240000D03*
G54D14*
G01X-40000Y384409D02*
Y560000D01*
X455902D01*
Y384409D01*
X-40000D01*
G01Y409409D02*
X455902D01*
G01X-40000Y459409D02*
X455902D01*
G01X-40000Y434409D02*
X455902D01*
G01X-29000Y490661D02*
Y503161D01*
X-23110D01*
G01X-25280Y497118D02*
X-29000D01*
G01X-15516Y503161D02*
X-11799D01*
G01X-13657D02*
Y490661D01*
G01X-15516D02*
X-11799D01*
G01X-331Y496909D02*
X2772D01*
Y493161D01*
X1839Y491909D01*
X756Y491079D01*
X-795Y490661D01*
X-2346Y491079D01*
X-3429Y491909D01*
X-4358Y493161D01*
X-4980Y494618D01*
X-5291Y496287D01*
Y497744D01*
X-4980Y498996D01*
X-4358Y500453D01*
X-3429Y501705D01*
X-2500Y502535D01*
X-1260Y503161D01*
X-173D01*
X1063Y502744D01*
X1996Y501909D01*
G01X7728Y503161D02*
Y494205D01*
X8346Y492327D01*
X9587Y491079D01*
X11138Y490661D01*
X12689Y491079D01*
X13929Y492327D01*
X14547Y494205D01*
Y503161D01*
G01X20437Y490661D02*
Y503161D01*
X24311D01*
X25551Y502535D01*
X26327Y501705D01*
X26634Y500035D01*
X26327Y498370D01*
X25394Y497327D01*
X24311Y496705D01*
X20437D01*
G01X24311D02*
X26634Y490661D01*
G01X39031D02*
X32835D01*
Y503161D01*
X39031D01*
G01X36551Y497118D02*
X32835D01*
G01X-40000Y484409D02*
X455902D01*
G01X-40000Y509409D02*
X455902D01*
G01X-40000Y534409D02*
X455902D01*
G01X0Y0D02*
Y275591D01*
X393701D01*
Y0D01*
X0D01*
G01X36709Y515661D02*
X40583Y528161D01*
X44457Y515661D01*
G01X43063Y520035D02*
X38102D01*
G01X49882Y528161D02*
Y515661D01*
X56079D01*
G01X62280Y528161D02*
Y515661D01*
X68476D01*
G01X86764Y528161D02*
Y519205D01*
X87382Y517327D01*
X88622Y516079D01*
X90173Y515661D01*
X91724Y516079D01*
X92965Y517327D01*
X93583Y519205D01*
Y528161D01*
G01X99008Y515661D02*
Y528161D01*
X106134Y515661D01*
Y528161D01*
G01X113110D02*
X116827D01*
G01X114969D02*
Y515661D01*
G01X113110D02*
X116827D01*
G01X127366Y528161D02*
Y515661D01*
G01X123803Y528161D02*
X130929D01*
G01X136508Y517327D02*
X137748Y516287D01*
X139146Y515661D01*
X140382D01*
X141622Y516287D01*
X142555Y517327D01*
X143020Y518787D01*
X142709Y520244D01*
X141933Y521496D01*
X140539Y522327D01*
X138677Y522744D01*
X137594Y523579D01*
X137130Y525035D01*
X137441Y526496D01*
X138213Y527535D01*
X139299Y528161D01*
X140382D01*
X141469Y527744D01*
X142398Y526705D01*
G01X160685Y515661D02*
X164559Y528161D01*
X168433Y515661D01*
G01X167039Y520035D02*
X162079D01*
G01X173858Y515661D02*
Y528161D01*
X177732D01*
X178972Y527535D01*
X179748Y526705D01*
X180055Y525035D01*
X179748Y523370D01*
X178815Y522327D01*
X177732Y521705D01*
X173858D01*
G01X177732D02*
X180055Y515661D01*
G01X192453D02*
X186256D01*
Y528161D01*
X192453D01*
G01X189972Y522118D02*
X186256D01*
G01X212291Y528161D02*
X216008D01*
G01X214150D02*
Y515661D01*
G01X212291D02*
X216008D01*
G01X222984D02*
Y528161D01*
X230110Y515661D01*
Y528161D01*
G01X247311Y515661D02*
Y528161D01*
X251343Y517744D01*
X255374Y528161D01*
Y515661D01*
G01X261882Y528161D02*
X265598D01*
G01X263740D02*
Y515661D01*
G01X261882D02*
X265598D01*
G01X273039Y528161D02*
Y515661D01*
X279236D01*
G01X285437Y528161D02*
Y515661D01*
X291634D01*
G01X299075Y528161D02*
X302791D01*
G01X300933D02*
Y515661D01*
G01X299075D02*
X302791D01*
G01X309299D02*
Y528161D01*
X313331Y517744D01*
X317362Y528161D01*
Y515661D01*
G01X328827D02*
X322630D01*
Y528161D01*
X328827D01*
G01X326346Y522118D02*
X322630D01*
G01X338126Y528161D02*
Y515661D01*
G01X334563Y528161D02*
X341689D01*
G01X353622Y515661D02*
X347425D01*
Y528161D01*
X353622D01*
G01X351142Y522118D02*
X347425D01*
G01X359823Y515661D02*
Y528161D01*
X363697D01*
X364937Y527535D01*
X365713Y526705D01*
X366020Y525035D01*
X365713Y523370D01*
X364780Y522327D01*
X363697Y521705D01*
X359823D01*
G01X363697D02*
X366020Y515661D01*
G01X372063Y517327D02*
X373303Y516287D01*
X374701Y515661D01*
X375937D01*
X377177Y516287D01*
X378110Y517327D01*
X378575Y518787D01*
X378264Y520244D01*
X377488Y521496D01*
X376094Y522327D01*
X374232Y522744D01*
X373150Y523579D01*
X372685Y525035D01*
X372996Y526496D01*
X373768Y527535D01*
X374854Y528161D01*
X375937D01*
X377024Y527744D01*
X377953Y526705D01*
G01X49882Y509409D02*
Y384409D01*
G01X73283Y490661D02*
Y503161D01*
X79173D01*
G01X77004Y497118D02*
X73283D01*
G01X86768Y503161D02*
X90484D01*
G01X88626D02*
Y490661D01*
G01X86768D02*
X90484D01*
G01X97461D02*
Y503161D01*
X104587Y490661D01*
Y503161D01*
G01X111563D02*
X115280D01*
G01X113421D02*
Y490661D01*
G01X111563D02*
X115280D01*
G01X122563Y492327D02*
X123803Y491287D01*
X125201Y490661D01*
X126437D01*
X127677Y491287D01*
X128610Y492327D01*
X129075Y493787D01*
X128764Y495244D01*
X127988Y496496D01*
X126594Y497327D01*
X124732Y497744D01*
X123650Y498579D01*
X123185Y500035D01*
X123496Y501496D01*
X124268Y502535D01*
X125354Y503161D01*
X126437D01*
X127524Y502744D01*
X128453Y501705D01*
G01X134961Y490661D02*
Y503161D01*
G01X141472D02*
Y490661D01*
G01Y496909D02*
X134961D01*
G01X153713Y490661D02*
X147516D01*
Y503161D01*
X153713D01*
G01X151232Y497118D02*
X147516D01*
G01X159602Y490661D02*
Y503161D01*
X162701D01*
X163941Y502535D01*
X164870Y501705D01*
X165646Y500453D01*
X166268Y498996D01*
X166421Y496909D01*
X166268Y494827D01*
X165646Y493370D01*
X164870Y492118D01*
X163941Y491287D01*
X162701Y490661D01*
X159602D01*
G01X170760Y486496D02*
X180059D01*
G01X184551Y492327D02*
X185791Y491287D01*
X187189Y490661D01*
X188425D01*
X189665Y491287D01*
X190598Y492327D01*
X191063Y493787D01*
X190752Y495244D01*
X189976Y496496D01*
X188583Y497327D01*
X186720Y497744D01*
X185638Y498579D01*
X185173Y500035D01*
X185484Y501496D01*
X186256Y502535D01*
X187343Y503161D01*
X188425D01*
X189512Y502744D01*
X190441Y501705D01*
G01X198346Y503161D02*
X202063D01*
G01X200205D02*
Y490661D01*
G01X198346D02*
X202063D01*
G01X209657Y503161D02*
X215547D01*
X209657Y490661D01*
X215547D01*
G01X228098D02*
X221902D01*
Y503161D01*
X228098D01*
G01X225618Y497118D02*
X221902D01*
G01X49571Y541252D02*
Y553752D01*
X52669D01*
X53909Y553126D01*
X54839Y552295D01*
X55614Y551043D01*
X56236Y549587D01*
X56390Y547500D01*
X56236Y545417D01*
X55614Y543961D01*
X54839Y542709D01*
X53909Y541878D01*
X52669Y541252D01*
X49571D01*
G01X62280D02*
Y553752D01*
X66154D01*
X67394Y553126D01*
X68169Y552295D01*
X68476Y550626D01*
X68169Y548961D01*
X67236Y547917D01*
X66154Y547295D01*
X62280D01*
G01X66154D02*
X68476Y541252D01*
G01X75917Y553752D02*
X79634D01*
G01X77776D02*
Y541252D01*
G01X75917D02*
X79634D01*
G01X87075Y553752D02*
Y541252D01*
X93272D01*
G01X99472Y553752D02*
Y541252D01*
X105669D01*
G01X130776Y552709D02*
X129846Y553335D01*
X128760Y553752D01*
X127520D01*
X126126Y553126D01*
X125043Y552087D01*
X124268Y550835D01*
X123646Y548752D01*
X123492Y546878D01*
X123803Y545000D01*
X124268Y543752D01*
X125197Y542500D01*
X126280Y541669D01*
X127366Y541252D01*
X128453D01*
X129535Y541669D01*
X130465Y542295D01*
X131240Y543126D01*
G01X136508Y541252D02*
Y553752D01*
G01X143020D02*
Y541252D01*
G01Y547500D02*
X136508D01*
G01X148287Y541252D02*
X152161Y553752D01*
X156035Y541252D01*
G01X154642Y545626D02*
X149681D01*
G01X161461Y541252D02*
Y553752D01*
X165335D01*
X166575Y553126D01*
X167350Y552295D01*
X167657Y550626D01*
X167350Y548961D01*
X166417Y547917D01*
X165335Y547295D01*
X161461D01*
G01X165335D02*
X167657Y541252D01*
G01X176957Y553752D02*
Y541252D01*
G01X173394Y553752D02*
X180520D01*
G01X189354Y540835D02*
X189043Y541043D01*
Y541461D01*
X189354Y541669D01*
X189665Y541461D01*
Y541043D01*
X189354Y540835D01*
G01Y546461D02*
X189043Y546669D01*
Y547087D01*
X189354Y547295D01*
X189665Y547087D01*
Y546669D01*
X189354Y546461D01*
G01X214150Y553752D02*
Y541252D01*
G01X210587Y553752D02*
X217713D01*
G01X226547Y541252D02*
X225307Y541461D01*
X224224Y542295D01*
X223291Y543543D01*
X222673Y545000D01*
X222362Y546669D01*
Y548335D01*
X222673Y550004D01*
X223291Y551461D01*
X224224Y552709D01*
X225307Y553543D01*
X226547Y553752D01*
X227787Y553543D01*
X228870Y552709D01*
X229803Y551461D01*
X230421Y550004D01*
X230732Y548335D01*
Y546669D01*
X230421Y545000D01*
X229803Y543543D01*
X228870Y542295D01*
X227787Y541461D01*
X226547Y541252D01*
G01X235846D02*
Y553752D01*
X239563D01*
X240803Y553126D01*
X241736Y551669D01*
X242043Y550004D01*
X241736Y548335D01*
X240961Y547087D01*
X239563Y546461D01*
X235846D01*
G01X263740Y553752D02*
Y541252D01*
G01X261571Y549587D02*
X265909D01*
G01X276138Y541252D02*
X275209Y541461D01*
X274280Y542295D01*
X273657Y543752D01*
X273346Y545417D01*
X273657Y547087D01*
X274280Y548543D01*
X275209Y549378D01*
X276138Y549587D01*
X277067Y549378D01*
X277996Y548543D01*
X278618Y547087D01*
X278772Y545417D01*
X278618Y543752D01*
X277996Y542295D01*
X277067Y541461D01*
X276138Y541252D01*
G01X302173Y547917D02*
X302791Y548543D01*
X303256Y549587D01*
X303567Y551043D01*
X303256Y552295D01*
X302638Y553126D01*
X301551Y553752D01*
X297370D01*
Y541252D01*
X302484D01*
X303567Y542087D01*
X304189Y543335D01*
X304496Y544795D01*
X304189Y546252D01*
X303256Y547500D01*
X302173Y547917D01*
X297370D01*
G01X313331Y541252D02*
X312091Y541461D01*
X311008Y542295D01*
X310075Y543543D01*
X309457Y545000D01*
X309146Y546669D01*
Y548335D01*
X309457Y550004D01*
X310075Y551461D01*
X311008Y552709D01*
X312091Y553543D01*
X313331Y553752D01*
X314571Y553543D01*
X315654Y552709D01*
X316587Y551461D01*
X317205Y550004D01*
X317516Y548335D01*
Y546669D01*
X317205Y545000D01*
X316587Y543543D01*
X315654Y542295D01*
X314571Y541461D01*
X313331Y541252D01*
G01X325728Y553752D02*
Y541252D01*
G01X322165Y553752D02*
X329291D01*
G01X338126D02*
Y541252D01*
G01X334563Y553752D02*
X341689D01*
G01X350524Y541252D02*
X349283Y541461D01*
X348201Y542295D01*
X347268Y543543D01*
X346650Y545000D01*
X346339Y546669D01*
Y548335D01*
X346650Y550004D01*
X347268Y551461D01*
X348201Y552709D01*
X349283Y553543D01*
X350524Y553752D01*
X351764Y553543D01*
X352846Y552709D01*
X353780Y551461D01*
X354398Y550004D01*
X354709Y548335D01*
Y546669D01*
X354398Y545000D01*
X353780Y543543D01*
X352846Y542295D01*
X351764Y541461D01*
X350524Y541252D01*
G01X358890D02*
Y553752D01*
X362921Y543335D01*
X366953Y553752D01*
Y541252D01*
G01X122409Y393161D02*
X123339Y391705D01*
X124579Y390870D01*
X125972Y390661D01*
X127213Y390870D01*
X128453Y391909D01*
X129228Y393161D01*
X129382Y394409D01*
X129075Y395870D01*
X127988Y396909D01*
X126906Y397327D01*
X125508D01*
G01X126906D02*
X127835Y397953D01*
X128610Y398996D01*
X128917Y400244D01*
X128610Y401496D01*
X127835Y402535D01*
X126437Y403161D01*
X125043Y402953D01*
X123650Y402118D01*
G01X138217Y390244D02*
X137906Y390453D01*
Y390870D01*
X138217Y391079D01*
X138528Y390870D01*
Y390453D01*
X138217Y390244D01*
G01X150614Y390661D02*
Y403161D01*
X148756Y400661D01*
G01Y390661D02*
X152472D01*
G01X162701D02*
X163012Y393370D01*
X163476Y395661D01*
X164098Y397744D01*
X164870Y400035D01*
X166110Y403161D01*
X159913D01*
G01X172000Y392535D02*
X172929Y391496D01*
X174016Y390870D01*
X175409Y390661D01*
X176803Y391079D01*
X177890Y391909D01*
X178665Y393370D01*
X178819Y395035D01*
X178508Y396705D01*
X177732Y397744D01*
X176650Y398579D01*
X175563Y398787D01*
X174480Y398579D01*
X173087Y397744D01*
X173551Y403161D01*
X177732D01*
G01X125819Y415661D02*
Y428161D01*
X123961Y425661D01*
G01Y415661D02*
X127677D01*
G01X138217Y415244D02*
X137906Y415453D01*
Y415870D01*
X138217Y416079D01*
X138528Y415870D01*
Y415453D01*
X138217Y415244D01*
G01X150614Y428161D02*
X149374Y427744D01*
X148445Y426705D01*
X147823Y425453D01*
X147358Y423787D01*
X147205Y421909D01*
X147358Y420035D01*
X147823Y418370D01*
X148445Y417118D01*
X149374Y416079D01*
X150614Y415661D01*
X151854Y416079D01*
X152783Y417118D01*
X153406Y418370D01*
X153870Y420035D01*
X154024Y421909D01*
X153870Y423787D01*
X153406Y425453D01*
X152783Y426705D01*
X151854Y427744D01*
X150614Y428161D01*
G01X160067Y420870D02*
X161154Y422327D01*
X162083Y423161D01*
X163323Y423579D01*
X164406Y423161D01*
X165181Y422327D01*
X165803Y421079D01*
X165957Y419618D01*
X165803Y418370D01*
X165181Y417118D01*
X164252Y416079D01*
X163165Y415661D01*
X161925Y416079D01*
X160843Y417327D01*
X160220Y419205D01*
X160067Y421287D01*
X160378Y423996D01*
X160843Y425453D01*
X161618Y426909D01*
X162701Y427953D01*
X163787Y428161D01*
X164870Y427744D01*
X165646Y426705D01*
G01X175098Y415661D02*
X175409Y418370D01*
X175874Y420661D01*
X176496Y422744D01*
X177268Y425035D01*
X178508Y428161D01*
X172311D01*
G01X125819Y478161D02*
X124579Y477744D01*
X123650Y476705D01*
X123028Y475453D01*
X122563Y473787D01*
X122409Y471909D01*
X122563Y470035D01*
X123028Y468370D01*
X123650Y467118D01*
X124579Y466079D01*
X125819Y465661D01*
X127059Y466079D01*
X127988Y467118D01*
X128610Y468370D01*
X129075Y470035D01*
X129228Y471909D01*
X129075Y473787D01*
X128610Y475453D01*
X127988Y476705D01*
X127059Y477744D01*
X125819Y478161D01*
G01X138217Y465244D02*
X137906Y465453D01*
Y465870D01*
X138217Y466079D01*
X138528Y465870D01*
Y465453D01*
X138217Y465244D01*
G01X147669Y470870D02*
X148756Y472327D01*
X149685Y473161D01*
X150925Y473579D01*
X152008Y473161D01*
X152783Y472327D01*
X153406Y471079D01*
X153559Y469618D01*
X153406Y468370D01*
X152783Y467118D01*
X151854Y466079D01*
X150768Y465661D01*
X149528Y466079D01*
X148445Y467327D01*
X147823Y469205D01*
X147669Y471287D01*
X147980Y473996D01*
X148445Y475453D01*
X149220Y476909D01*
X150303Y477953D01*
X151390Y478161D01*
X152472Y477744D01*
X153248Y476705D01*
G01X159602Y468161D02*
X160531Y466705D01*
X161772Y465870D01*
X163165Y465661D01*
X164406Y465870D01*
X165646Y466909D01*
X166421Y468161D01*
X166575Y469409D01*
X166268Y470870D01*
X165181Y471909D01*
X164098Y472327D01*
X162701D01*
G01X164098D02*
X165028Y472953D01*
X165803Y473996D01*
X166110Y475244D01*
X165803Y476496D01*
X165028Y477535D01*
X163630Y478161D01*
X162236Y477953D01*
X160843Y477118D01*
G01X172000Y467535D02*
X172929Y466496D01*
X174016Y465870D01*
X175409Y465661D01*
X176803Y466079D01*
X177890Y466909D01*
X178665Y468370D01*
X178819Y470035D01*
X178508Y471705D01*
X177732Y472744D01*
X176650Y473579D01*
X175563Y473787D01*
X174480Y473579D01*
X173087Y472744D01*
X173551Y478161D01*
X177732D01*
G01X125819Y453161D02*
X124579Y452744D01*
X123650Y451705D01*
X123028Y450453D01*
X122563Y448787D01*
X122409Y446909D01*
X122563Y445035D01*
X123028Y443370D01*
X123650Y442118D01*
X124579Y441079D01*
X125819Y440661D01*
X127059Y441079D01*
X127988Y442118D01*
X128610Y443370D01*
X129075Y445035D01*
X129228Y446909D01*
X129075Y448787D01*
X128610Y450453D01*
X127988Y451705D01*
X127059Y452744D01*
X125819Y453161D01*
G01X138217Y440244D02*
X137906Y440453D01*
Y440870D01*
X138217Y441079D01*
X138528Y440870D01*
Y440453D01*
X138217Y440244D01*
G01X147980Y442118D02*
X149063Y441079D01*
X150303Y440661D01*
X151543Y441079D01*
X152630Y442327D01*
X153406Y444205D01*
X153713Y446079D01*
Y448370D01*
X153406Y450244D01*
X152630Y451909D01*
X151701Y452744D01*
X150614Y453161D01*
X149374Y452744D01*
X148445Y451909D01*
X147823Y450661D01*
X147516Y448996D01*
X147823Y447535D01*
X148598Y446079D01*
X149528Y445244D01*
X150614Y445035D01*
X151854Y445453D01*
X152783Y446496D01*
X153713Y448370D01*
G01X163012Y440661D02*
Y453161D01*
X161154Y450661D01*
G01Y440661D02*
X164870D01*
G01X177268D02*
Y453161D01*
X171535Y444205D01*
X179283D01*
G01X251343Y509409D02*
Y384409D01*
G01X255528Y390661D02*
Y403161D01*
X262654Y390661D01*
Y403161D01*
G01X271488Y390661D02*
X270248Y390870D01*
X269165Y391705D01*
X268232Y392953D01*
X267614Y394409D01*
X267303Y396079D01*
Y397744D01*
X267614Y399413D01*
X268232Y400870D01*
X269165Y402118D01*
X270248Y402953D01*
X271488Y403161D01*
X272728Y402953D01*
X273811Y402118D01*
X274744Y400870D01*
X275362Y399413D01*
X275673Y397744D01*
Y396079D01*
X275362Y394409D01*
X274744Y392953D01*
X273811Y391705D01*
X272728Y390870D01*
X271488Y390661D01*
G01X280323D02*
Y403161D01*
X287449Y390661D01*
Y403161D01*
G01X294268Y394827D02*
X298299D01*
G01X305583Y390661D02*
Y403161D01*
X309299D01*
X310539Y402535D01*
X311472Y401079D01*
X311780Y399413D01*
X311472Y397744D01*
X310697Y396496D01*
X309299Y395870D01*
X305583D01*
G01X317980Y403161D02*
Y390661D01*
X324177D01*
G01X329602D02*
X333476Y403161D01*
X337350Y390661D01*
G01X335957Y395035D02*
X330996D01*
G01X345874Y403161D02*
Y390661D01*
G01X342311Y403161D02*
X349437D01*
G01X361370Y390661D02*
X355173D01*
Y403161D01*
X361370D01*
G01X358890Y397118D02*
X355173D01*
G01X367260Y390661D02*
Y403161D01*
X370358D01*
X371598Y402535D01*
X372528Y401705D01*
X373303Y400453D01*
X373925Y398996D01*
X374079Y396909D01*
X373925Y394827D01*
X373303Y393370D01*
X372528Y392118D01*
X371598Y391287D01*
X370358Y390661D01*
X367260D01*
G01X280787Y415661D02*
Y428161D01*
X284504D01*
X285744Y427535D01*
X286677Y426079D01*
X286984Y424413D01*
X286677Y422744D01*
X285902Y421496D01*
X284504Y420870D01*
X280787D01*
G01X293185Y428161D02*
Y415661D01*
X299382D01*
G01X304807D02*
X308681Y428161D01*
X312555Y415661D01*
G01X311161Y420035D02*
X306201D01*
G01X321079Y428161D02*
Y415661D01*
G01X317516Y428161D02*
X324642D01*
G01X336575Y415661D02*
X330378D01*
Y428161D01*
X336575D01*
G01X334094Y422118D02*
X330378D01*
G01X342465Y415661D02*
Y428161D01*
X345563D01*
X346803Y427535D01*
X347732Y426705D01*
X348508Y425453D01*
X349130Y423996D01*
X349283Y421909D01*
X349130Y419827D01*
X348508Y418370D01*
X347732Y417118D01*
X346803Y416287D01*
X345563Y415661D01*
X342465D01*
G01X280787Y465661D02*
Y478161D01*
X284504D01*
X285744Y477535D01*
X286677Y476079D01*
X286984Y474413D01*
X286677Y472744D01*
X285902Y471496D01*
X284504Y470870D01*
X280787D01*
G01X293185Y478161D02*
Y465661D01*
X299382D01*
G01X304807D02*
X308681Y478161D01*
X312555Y465661D01*
G01X311161Y470035D02*
X306201D01*
G01X321079Y478161D02*
Y465661D01*
G01X317516Y478161D02*
X324642D01*
G01X336575Y465661D02*
X330378D01*
Y478161D01*
X336575D01*
G01X334094Y472118D02*
X330378D01*
G01X342465Y465661D02*
Y478161D01*
X345563D01*
X346803Y477535D01*
X347732Y476705D01*
X348508Y475453D01*
X349130Y473996D01*
X349283Y471909D01*
X349130Y469827D01*
X348508Y468370D01*
X347732Y467118D01*
X346803Y466287D01*
X345563Y465661D01*
X342465D01*
G01X280787Y440661D02*
Y453161D01*
X284504D01*
X285744Y452535D01*
X286677Y451079D01*
X286984Y449413D01*
X286677Y447744D01*
X285902Y446496D01*
X284504Y445870D01*
X280787D01*
G01X293185Y453161D02*
Y440661D01*
X299382D01*
G01X304807D02*
X308681Y453161D01*
X312555Y440661D01*
G01X311161Y445035D02*
X306201D01*
G01X321079Y453161D02*
Y440661D01*
G01X317516Y453161D02*
X324642D01*
G01X336575Y440661D02*
X330378D01*
Y453161D01*
X336575D01*
G01X334094Y447118D02*
X330378D01*
G01X342465Y440661D02*
Y453161D01*
X345563D01*
X346803Y452535D01*
X347732Y451705D01*
X348508Y450453D01*
X349130Y448996D01*
X349283Y446909D01*
X349130Y444827D01*
X348508Y443370D01*
X347732Y442118D01*
X346803Y441287D01*
X345563Y440661D01*
X342465D01*
G01X280787Y490661D02*
Y503161D01*
X284504D01*
X285744Y502535D01*
X286677Y501079D01*
X286984Y499413D01*
X286677Y497744D01*
X285902Y496496D01*
X284504Y495870D01*
X280787D01*
G01X293185Y503161D02*
Y490661D01*
X299382D01*
G01X304807D02*
X308681Y503161D01*
X312555Y490661D01*
G01X311161Y495035D02*
X306201D01*
G01X321079Y503161D02*
Y490661D01*
G01X317516Y503161D02*
X324642D01*
G01X336575Y490661D02*
X330378D01*
Y503161D01*
X336575D01*
G01X334094Y497118D02*
X330378D01*
G01X342465Y490661D02*
Y503161D01*
X345563D01*
X346803Y502535D01*
X347732Y501705D01*
X348508Y500453D01*
X349130Y498996D01*
X349283Y496909D01*
X349130Y494827D01*
X348508Y493370D01*
X347732Y492118D01*
X346803Y491287D01*
X345563Y490661D01*
X342465D01*
G01X378417Y509409D02*
Y384409D01*
G01X404760Y490661D02*
X403520Y490870D01*
X402437Y491705D01*
X401504Y492953D01*
X400886Y494409D01*
X400575Y496079D01*
Y497744D01*
X400886Y499413D01*
X401504Y500870D01*
X402437Y502118D01*
X403520Y502953D01*
X404760Y503161D01*
X406000Y502953D01*
X407083Y502118D01*
X408016Y500870D01*
X408634Y499413D01*
X408945Y497744D01*
Y496079D01*
X408634Y494409D01*
X408016Y492953D01*
X407083Y491705D01*
X406000Y490870D01*
X404760Y490661D01*
G01X406000Y493996D02*
X407858Y490661D01*
G01X417157Y503161D02*
Y490661D01*
G01X413594Y503161D02*
X420720D01*
G01X429555Y490661D02*
Y496287D01*
X426457Y503161D01*
G01X432654D02*
X429555Y496287D01*
G01X419016Y390661D02*
Y403161D01*
X413283Y394205D01*
X421031D01*
G01X407547Y418161D02*
X408476Y416705D01*
X409717Y415870D01*
X411110Y415661D01*
X412350Y415870D01*
X413591Y416909D01*
X414366Y418161D01*
X414520Y419409D01*
X414213Y420870D01*
X413126Y421909D01*
X412043Y422327D01*
X410646D01*
G01X412043D02*
X412972Y422953D01*
X413748Y423996D01*
X414055Y425244D01*
X413748Y426496D01*
X412972Y427535D01*
X411575Y428161D01*
X410181Y427953D01*
X408787Y427118D01*
G01X423354Y415661D02*
X424441Y415870D01*
X425677Y416496D01*
X426453Y417535D01*
X426764Y418996D01*
X426453Y420453D01*
X425524Y421705D01*
X424130Y422327D01*
X422579D01*
X421650Y422744D01*
X420874Y423787D01*
X420563Y425244D01*
X421031Y426705D01*
X422114Y427744D01*
X423354Y428161D01*
X424594Y427744D01*
X425677Y426705D01*
X426146Y425244D01*
X425835Y423787D01*
X425059Y422744D01*
X424130Y422327D01*
X422579D01*
X421185Y421705D01*
X420256Y420453D01*
X419945Y418996D01*
X420256Y417535D01*
X421031Y416496D01*
X422268Y415870D01*
X423354Y415661D01*
G01X419016Y465661D02*
Y478161D01*
X413283Y469205D01*
X421031D01*
G01X412815Y440661D02*
Y453161D01*
X407083Y444205D01*
X414831D01*
G01X425213Y440661D02*
Y453161D01*
X419480Y444205D01*
X427228D01*
M02*
