G04 ================== begin FILE IDENTIFICATION RECORD ==================*
G04 Layout Name:  C:/WORK_ORCAD/DA_CONVERTOR/allegro/DA_CONVERTOR.brd*
G04 Film Name:    SilkTop*
G04 File Format:  Gerber RS274X*
G04 File Origin:  Cadence Allegro 17.2-P019*
G04 Origin Date:  Wed Jul 31 15:49:11 2019*
G04 *
G04 Layer:  REF DES/SILKSCREEN_TOP*
G04 Layer:  PACKAGE GEOMETRY/SILKSCREEN_TOP*
G04 Layer:  BOARD GEOMETRY/SILKSCREEN_TOP*
G04 *
G04 Offset:    (0.000 0.000)*
G04 Mirror:    No*
G04 Mode:      Positive*
G04 Rotation:  0*
G04 FullContactRelief:  No*
G04 UndefLineWidth:     0.200*
G04 ================== end FILE IDENTIFICATION RECORD ====================*
%FSLAX25Y25*MOIN*%
%IR0*IPPOS*OFA0.00000B0.00000*MIA0B0*SFA1.00000B1.00000*%
%ADD10C,.015748*%
%ADD11C,.007874*%
G75*
%LPD*%
G75*
G54D10*
G01X172626Y10000D02*
X170524D01*
Y25748D01*
X172626D01*
G01X171783Y18138D02*
X170524D01*
G01X175642Y25748D02*
Y10000D01*
X177744D01*
G01X182862D02*
X180760D01*
Y25748D01*
X182862D01*
G01X182020Y18138D02*
X180760D01*
G01X186929Y25748D02*
Y10000D01*
G01X185720Y25748D02*
X188138D01*
G01X190996Y10000D02*
Y25748D01*
X192311D01*
X192728Y24961D01*
X192992Y23909D01*
X193098Y21811D01*
X192992Y19713D01*
X192677Y18398D01*
X192311Y17610D01*
X190996D01*
G01X192311D02*
X193098Y10000D01*
G01X197165D02*
X196744Y10264D01*
X196378Y11311D01*
X196063Y12886D01*
X195854Y14724D01*
X195748Y16823D01*
Y18925D01*
X195854Y21024D01*
X196063Y22862D01*
X196378Y24437D01*
X196744Y25484D01*
X197165Y25748D01*
X197587Y25484D01*
X197953Y24437D01*
X198268Y22862D01*
X198476Y21024D01*
X198583Y18925D01*
Y16823D01*
X198476Y14724D01*
X198268Y12886D01*
X197953Y11311D01*
X197587Y10264D01*
X197165Y10000D01*
G01X201075D02*
Y25748D01*
X203492Y10000D01*
Y25748D01*
G01X206772D02*
X208031D01*
G01X207402D02*
Y10000D01*
G01X206772D02*
X208031D01*
G01X213673Y24437D02*
X213358Y25224D01*
X212992Y25748D01*
X212571D01*
X212098Y24961D01*
X211732Y23650D01*
X211469Y22075D01*
X211260Y19449D01*
X211209Y17087D01*
X211311Y14724D01*
X211469Y13150D01*
X211783Y11575D01*
X212154Y10524D01*
X212520Y10000D01*
X212886D01*
X213256Y10524D01*
X213571Y11311D01*
X213831Y12362D01*
G01X223909Y24437D02*
X223594Y25224D01*
X223228Y25748D01*
X222807D01*
X222335Y24961D01*
X221969Y23650D01*
X221705Y22075D01*
X221496Y19449D01*
X221445Y17087D01*
X221547Y14724D01*
X221705Y13150D01*
X222020Y11575D01*
X222390Y10524D01*
X222756Y10000D01*
X223122D01*
X223492Y10524D01*
X223807Y11311D01*
X224067Y12362D01*
G01X226563Y10000D02*
X227874Y25748D01*
X229185Y10000D01*
G01X228713Y15512D02*
X227035D01*
G01X231839Y10000D02*
Y25748D01*
X232886D01*
X233307Y24961D01*
X233622Y23909D01*
X233886Y22335D01*
X234094Y20500D01*
X234146Y17874D01*
X234094Y15248D01*
X233886Y13413D01*
X233622Y11839D01*
X233307Y10787D01*
X232886Y10000D01*
X231839D01*
G01X170421Y260000D02*
Y275748D01*
X171469D01*
X171890Y274961D01*
X172205Y273909D01*
X172469Y272335D01*
X172677Y270500D01*
X172728Y267874D01*
X172677Y265248D01*
X172469Y263413D01*
X172205Y261839D01*
X171890Y260787D01*
X171469Y260000D01*
X170421D01*
G01X175382D02*
X176693Y275748D01*
X178004Y260000D01*
G01X177531Y265512D02*
X175854D01*
G01X188083Y274437D02*
X187768Y275224D01*
X187402Y275748D01*
X186980D01*
X186508Y274961D01*
X186142Y273650D01*
X185878Y272075D01*
X185669Y269449D01*
X185618Y267087D01*
X185720Y264724D01*
X185878Y263150D01*
X186193Y261575D01*
X186563Y260524D01*
X186929Y260000D01*
X187295D01*
X187665Y260524D01*
X187980Y261311D01*
X188240Y262362D01*
G01X192047Y260000D02*
X191626Y260264D01*
X191260Y261311D01*
X190945Y262886D01*
X190736Y264724D01*
X190630Y266823D01*
Y268925D01*
X190736Y271024D01*
X190945Y272862D01*
X191260Y274437D01*
X191626Y275484D01*
X192047Y275748D01*
X192469Y275484D01*
X192835Y274437D01*
X193150Y272862D01*
X193358Y271024D01*
X193465Y268925D01*
Y266823D01*
X193358Y264724D01*
X193150Y262886D01*
X192835Y261311D01*
X192469Y260264D01*
X192047Y260000D01*
G01X195957D02*
Y275748D01*
X198374Y260000D01*
Y275748D01*
G01X200972D02*
X202283Y260000D01*
X203594Y275748D01*
G01X208453Y260000D02*
X206350D01*
Y275748D01*
X208453D01*
G01X207610Y268138D02*
X206350D01*
G01X211469Y260000D02*
Y275748D01*
X212783D01*
X213201Y274961D01*
X213465Y273909D01*
X213571Y271811D01*
X213465Y269713D01*
X213150Y268398D01*
X212783Y267610D01*
X211469D01*
G01X212783D02*
X213571Y260000D01*
G01X217638Y275748D02*
Y260000D01*
G01X216429Y275748D02*
X218846D01*
G01X222756Y260000D02*
X222335Y260264D01*
X221969Y261311D01*
X221654Y262886D01*
X221445Y264724D01*
X221339Y266823D01*
Y268925D01*
X221445Y271024D01*
X221654Y272862D01*
X221969Y274437D01*
X222335Y275484D01*
X222756Y275748D01*
X223177Y275484D01*
X223543Y274437D01*
X223858Y272862D01*
X224067Y271024D01*
X224173Y268925D01*
Y266823D01*
X224067Y264724D01*
X223858Y262886D01*
X223543Y261311D01*
X223177Y260264D01*
X222756Y260000D01*
G01X226823D02*
Y275748D01*
X228138D01*
X228555Y274961D01*
X228819Y273909D01*
X228925Y271811D01*
X228819Y269713D01*
X228504Y268398D01*
X228138Y267610D01*
X226823D01*
G01X228138D02*
X228925Y260000D01*
G54D11*
G01X115000Y76000D02*
X40000D01*
Y54000D01*
X115000D01*
Y60000D01*
X112500Y62500D01*
Y67500D01*
X115000Y70000D01*
Y76000D01*
G01X14685Y142795D02*
X24685D01*
Y102795D01*
X14685D01*
Y142795D01*
G01X26185Y131000D02*
X26500Y130500D01*
X26882Y130165D01*
X27323Y130000D01*
X27831Y130165D01*
X28213Y130500D01*
X28591Y131000D01*
X28717Y131665D01*
Y135000D01*
G01X31346Y134165D02*
X31724Y134665D01*
X32169Y134917D01*
X32677Y135000D01*
X33311Y134835D01*
X33752Y134417D01*
X33878Y133917D01*
X33815Y133417D01*
X33563Y133000D01*
X32295Y132165D01*
X31724Y131583D01*
X31346Y130748D01*
X31220Y130000D01*
X33878D01*
G01X92909Y110906D02*
Y107323D01*
X93161Y106571D01*
X93669Y106071D01*
X94299Y105906D01*
X94933Y106071D01*
X95441Y106571D01*
X95693Y107323D01*
Y110906D01*
G01X99398Y105906D02*
Y110906D01*
X98638Y109906D01*
G01Y105906D02*
X100157D01*
G01X84000Y155000D02*
X90000D01*
X92500Y152500D01*
X97500D01*
X100000Y155000D01*
X106000D01*
Y115000D01*
X84000D01*
Y155000D01*
G01X78500Y190000D02*
X106500D01*
Y180000D01*
X78500D01*
Y190000D01*
G01Y202500D02*
X106500D01*
Y192500D01*
X78500D01*
Y202500D01*
G01X75000Y175000D02*
X105000D01*
Y165000D01*
X75000D01*
Y175000D01*
G01X106500Y217500D02*
X78500D01*
Y227500D01*
X106500D01*
Y217500D01*
G01Y205000D02*
X78500D01*
Y215000D01*
X106500D01*
Y205000D01*
G01X121650Y67992D02*
Y64409D01*
X121902Y63657D01*
X122409Y63157D01*
X123039Y62992D01*
X123673Y63157D01*
X124181Y63657D01*
X124433Y64409D01*
Y67992D01*
G01X126748Y63992D02*
X127126Y63409D01*
X127634Y63075D01*
X128205Y62992D01*
X128709Y63075D01*
X129217Y63492D01*
X129531Y63992D01*
X129594Y64492D01*
X129469Y65075D01*
X129028Y65492D01*
X128583Y65657D01*
X128012D01*
G01X128583D02*
X128965Y65909D01*
X129280Y66327D01*
X129406Y66827D01*
X129280Y67327D01*
X128965Y67740D01*
X128394Y67992D01*
X127823Y67909D01*
X127252Y67575D01*
G01X115083Y185039D02*
Y190039D01*
X116665D01*
X117173Y189787D01*
X117488Y189457D01*
X117614Y188787D01*
X117488Y188122D01*
X117110Y187705D01*
X116665Y187457D01*
X115083D01*
G01X116665D02*
X117614Y185039D01*
G01X121445D02*
Y190039D01*
X120685Y189039D01*
G01Y185039D02*
X122205D01*
G01X119315Y173480D02*
X118937Y173732D01*
X118492Y173898D01*
X117988D01*
X117417Y173646D01*
X116972Y173232D01*
X116657Y172732D01*
X116402Y171898D01*
X116339Y171146D01*
X116469Y170398D01*
X116657Y169898D01*
X117035Y169398D01*
X117480Y169063D01*
X117921Y168898D01*
X118366D01*
X118811Y169063D01*
X119189Y169315D01*
X119508Y169646D01*
G01X123020Y168898D02*
Y173898D01*
X122260Y172898D01*
G01Y168898D02*
X123780D01*
G01X114295Y221654D02*
Y226654D01*
X115878D01*
X116386Y226402D01*
X116701Y226071D01*
X116827Y225402D01*
X116701Y224736D01*
X116323Y224319D01*
X115878Y224071D01*
X114295D01*
G01X115878D02*
X116827Y221654D01*
G01X119268Y222654D02*
X119646Y222071D01*
X120154Y221736D01*
X120724Y221654D01*
X121228Y221736D01*
X121736Y222154D01*
X122051Y222654D01*
X122114Y223154D01*
X121988Y223736D01*
X121547Y224154D01*
X121102Y224319D01*
X120531D01*
G01X121102D02*
X121484Y224571D01*
X121799Y224988D01*
X121925Y225488D01*
X121799Y225988D01*
X121484Y226402D01*
X120913Y226654D01*
X120343Y226571D01*
X119772Y226236D01*
G01X114689Y209843D02*
Y214843D01*
X116272D01*
X116780Y214591D01*
X117094Y214260D01*
X117220Y213591D01*
X117094Y212925D01*
X116717Y212508D01*
X116272Y212260D01*
X114689D01*
G01X116272D02*
X117220Y209843D01*
G01X121051D02*
X121496Y209925D01*
X122004Y210177D01*
X122319Y210591D01*
X122445Y211177D01*
X122319Y211760D01*
X121941Y212260D01*
X121370Y212508D01*
X120736D01*
X120358Y212677D01*
X120039Y213091D01*
X119913Y213677D01*
X120102Y214260D01*
X120547Y214677D01*
X121051Y214843D01*
X121559Y214677D01*
X122004Y214260D01*
X122193Y213677D01*
X122067Y213091D01*
X121748Y212677D01*
X121370Y212508D01*
X120736D01*
X120165Y212260D01*
X119787Y211760D01*
X119661Y211177D01*
X119787Y210591D01*
X120102Y210177D01*
X120610Y209925D01*
X121051Y209843D01*
G01X115083Y197638D02*
Y202638D01*
X116665D01*
X117173Y202386D01*
X117488Y202055D01*
X117614Y201386D01*
X117488Y200720D01*
X117110Y200303D01*
X116665Y200055D01*
X115083D01*
G01X116665D02*
X117614Y197638D01*
G01X121319D02*
X121445Y198720D01*
X121638Y199638D01*
X121890Y200472D01*
X122209Y201386D01*
X122713Y202638D01*
X120181D01*
G01X186500Y32500D02*
X158500D01*
Y42500D01*
X186500D01*
Y32500D01*
G01Y62500D02*
X158500D01*
Y72500D01*
X186500D01*
Y62500D01*
G01Y47500D02*
X158500D01*
Y57500D01*
X186500D01*
Y47500D01*
G01X158500Y87500D02*
X186500D01*
Y77500D01*
X158500D01*
Y87500D01*
G01X159000Y155000D02*
X165000D01*
X167500Y152500D01*
X172500D01*
X175000Y155000D01*
X181000D01*
Y115000D01*
X159000D01*
Y155000D01*
G01X166925Y111693D02*
Y108110D01*
X167177Y107358D01*
X167685Y106858D01*
X168315Y106693D01*
X168949Y106858D01*
X169457Y107358D01*
X169709Y108110D01*
Y111693D01*
G01X172213Y110858D02*
X172591Y111358D01*
X173035Y111610D01*
X173543Y111693D01*
X174177Y111528D01*
X174618Y111110D01*
X174744Y110610D01*
X174681Y110110D01*
X174429Y109693D01*
X173161Y108858D01*
X172591Y108276D01*
X172213Y107441D01*
X172087Y106693D01*
X174744D01*
G01X173500Y177500D02*
X201500D01*
Y167500D01*
X173500D01*
Y177500D01*
G01Y190000D02*
X201500D01*
Y180000D01*
X173500D01*
Y190000D01*
G01X201500Y192500D02*
X173500D01*
Y202500D01*
X201500D01*
Y192500D01*
G01X173500Y215000D02*
X201500D01*
Y205000D01*
X173500D01*
Y215000D01*
G01X177500Y231500D02*
X193500D01*
Y223500D01*
X177500D01*
Y231500D01*
G01X182000D02*
Y223500D01*
G01X181500Y231500D02*
Y223500D01*
G01X192500Y236000D02*
X176500D01*
Y244000D01*
X192500D01*
Y236000D01*
G01X188000D02*
Y244000D01*
G01X188500Y236000D02*
Y244000D01*
G01X195602Y36614D02*
Y41614D01*
X197185D01*
X197693Y41362D01*
X198008Y41031D01*
X198134Y40362D01*
X198008Y39697D01*
X197630Y39280D01*
X197185Y39031D01*
X195602D01*
G01X197185D02*
X198134Y36614D01*
G01X201965D02*
Y41614D01*
X201205Y40614D01*
G01Y36614D02*
X202724D01*
G01X205862Y40780D02*
X206240Y41280D01*
X206685Y41531D01*
X207193Y41614D01*
X207827Y41449D01*
X208268Y41031D01*
X208394Y40531D01*
X208331Y40031D01*
X208079Y39614D01*
X206811Y38780D01*
X206240Y38197D01*
X205862Y37362D01*
X205736Y36614D01*
X208394D01*
G01X195996Y66535D02*
Y71535D01*
X197579D01*
X198087Y71283D01*
X198402Y70953D01*
X198528Y70283D01*
X198402Y69618D01*
X198024Y69201D01*
X197579Y68953D01*
X195996D01*
G01X197579D02*
X198528Y66535D01*
G01X202358D02*
Y71535D01*
X201598Y70535D01*
G01Y66535D02*
X203118D01*
G01X207457D02*
Y71535D01*
X206697Y70535D01*
G01Y66535D02*
X208217D01*
G01X223161Y62992D02*
Y67992D01*
X224744D01*
X225252Y67740D01*
X225567Y67409D01*
X225693Y66740D01*
X225567Y66075D01*
X225189Y65657D01*
X224744Y65409D01*
X223161D01*
G01X224744D02*
X225693Y62992D01*
G01X229524D02*
Y67992D01*
X228764Y66992D01*
G01Y62992D02*
X230283D01*
G01X233421Y65075D02*
X233862Y65657D01*
X234244Y65992D01*
X234752Y66157D01*
X235193Y65992D01*
X235512Y65657D01*
X235764Y65157D01*
X235827Y64575D01*
X235764Y64075D01*
X235512Y63575D01*
X235130Y63157D01*
X234689Y62992D01*
X234181Y63157D01*
X233736Y63657D01*
X233484Y64409D01*
X233421Y65240D01*
X233547Y66327D01*
X233736Y66909D01*
X234055Y67492D01*
X234496Y67909D01*
X234941Y67992D01*
X235386Y67827D01*
X235701Y67409D01*
G01X212500Y48500D02*
Y76500D01*
X222500D01*
Y48500D01*
X212500D01*
G01X195209Y51181D02*
Y56181D01*
X196791D01*
X197299Y55929D01*
X197614Y55598D01*
X197740Y54929D01*
X197614Y54264D01*
X197236Y53846D01*
X196791Y53598D01*
X195209D01*
G01X196791D02*
X197740Y51181D01*
G01X201571D02*
Y56181D01*
X200811Y55181D01*
G01Y51181D02*
X202331D01*
G01X206669Y56181D02*
X206165Y56016D01*
X205783Y55598D01*
X205531Y55098D01*
X205343Y54429D01*
X205280Y53681D01*
X205343Y52929D01*
X205531Y52264D01*
X205783Y51764D01*
X206165Y51346D01*
X206669Y51181D01*
X207177Y51346D01*
X207559Y51764D01*
X207811Y52264D01*
X208000Y52929D01*
X208063Y53681D01*
X208000Y54429D01*
X207811Y55098D01*
X207559Y55598D01*
X207177Y56016D01*
X206669Y56181D01*
G01X195209Y81496D02*
Y86496D01*
X196791D01*
X197299Y86244D01*
X197614Y85913D01*
X197740Y85244D01*
X197614Y84579D01*
X197236Y84161D01*
X196791Y83913D01*
X195209D01*
G01X196791D02*
X197740Y81496D01*
G01X201571D02*
Y86496D01*
X200811Y85496D01*
G01Y81496D02*
X202331D01*
G01X205280Y82496D02*
X205657Y81913D01*
X206165Y81579D01*
X206736Y81496D01*
X207240Y81579D01*
X207748Y81996D01*
X208063Y82496D01*
X208126Y82996D01*
X208000Y83579D01*
X207559Y83996D01*
X207114Y84161D01*
X206543D01*
G01X207114D02*
X207496Y84413D01*
X207811Y84831D01*
X207937Y85331D01*
X207811Y85831D01*
X207496Y86244D01*
X206925Y86496D01*
X206354Y86413D01*
X205783Y86079D01*
G01X201508Y150787D02*
Y155787D01*
X203091D01*
X203598Y155535D01*
X203913Y155205D01*
X204039Y154535D01*
X203913Y153870D01*
X203535Y153453D01*
X203091Y153205D01*
X201508D01*
G01X203091D02*
X204039Y150787D01*
G01X207870D02*
Y155787D01*
X207110Y154787D01*
G01Y150787D02*
X208630D01*
G01X212969D02*
X213413Y150870D01*
X213921Y151122D01*
X214236Y151535D01*
X214362Y152122D01*
X214236Y152705D01*
X213858Y153205D01*
X213287Y153453D01*
X212654D01*
X212276Y153622D01*
X211957Y154035D01*
X211831Y154622D01*
X212020Y155205D01*
X212465Y155622D01*
X212969Y155787D01*
X213476Y155622D01*
X213921Y155205D01*
X214110Y154622D01*
X213984Y154035D01*
X213665Y153622D01*
X213287Y153453D01*
X212654D01*
X212083Y153205D01*
X211705Y152705D01*
X211579Y152122D01*
X211705Y151535D01*
X212020Y151122D01*
X212528Y150870D01*
X212969Y150787D01*
G01X227500Y166500D02*
Y138500D01*
X217500D01*
Y166500D01*
X227500D01*
G01X210752Y172047D02*
Y177047D01*
X212335D01*
X212843Y176795D01*
X213157Y176465D01*
X213283Y175795D01*
X213157Y175130D01*
X212780Y174713D01*
X212335Y174465D01*
X210752D01*
G01X212335D02*
X213283Y172047D01*
G01X215913Y174130D02*
X216354Y174713D01*
X216736Y175047D01*
X217244Y175213D01*
X217685Y175047D01*
X218004Y174713D01*
X218256Y174213D01*
X218319Y173630D01*
X218256Y173130D01*
X218004Y172630D01*
X217622Y172213D01*
X217181Y172047D01*
X216673Y172213D01*
X216228Y172713D01*
X215976Y173465D01*
X215913Y174295D01*
X216039Y175382D01*
X216228Y175965D01*
X216547Y176547D01*
X216988Y176965D01*
X217433Y177047D01*
X217878Y176882D01*
X218193Y176465D01*
G01X210358Y183465D02*
Y188465D01*
X211941D01*
X212449Y188213D01*
X212764Y187882D01*
X212890Y187213D01*
X212764Y186547D01*
X212386Y186130D01*
X211941Y185882D01*
X210358D01*
G01X211941D02*
X212890Y183465D01*
G01X215520Y187630D02*
X215898Y188130D01*
X216343Y188382D01*
X216850Y188465D01*
X217484Y188299D01*
X217925Y187882D01*
X218051Y187382D01*
X217988Y186882D01*
X217736Y186465D01*
X216469Y185630D01*
X215898Y185047D01*
X215520Y184213D01*
X215394Y183465D01*
X218051D01*
G01X209571Y197638D02*
Y202638D01*
X211154D01*
X211661Y202386D01*
X211976Y202055D01*
X212102Y201386D01*
X211976Y200720D01*
X211598Y200303D01*
X211154Y200055D01*
X209571D01*
G01X211154D02*
X212102Y197638D01*
G01X216697D02*
Y202638D01*
X214350Y199055D01*
X217520D01*
G01X209571Y208268D02*
Y213268D01*
X211154D01*
X211661Y213016D01*
X211976Y212685D01*
X212102Y212016D01*
X211976Y211350D01*
X211598Y210933D01*
X211154Y210685D01*
X209571D01*
G01X211154D02*
X212102Y208268D01*
G01X214543Y209016D02*
X214921Y208602D01*
X215366Y208350D01*
X215933Y208268D01*
X216504Y208433D01*
X216949Y208768D01*
X217264Y209350D01*
X217327Y210016D01*
X217201Y210685D01*
X216886Y211102D01*
X216441Y211433D01*
X216000Y211516D01*
X215555Y211433D01*
X214984Y211102D01*
X215173Y213268D01*
X216886D01*
G01X203264Y226772D02*
Y231772D01*
X204528D01*
X205035Y231520D01*
X205417Y231189D01*
X205732Y230689D01*
X205984Y230106D01*
X206047Y229272D01*
X205984Y228437D01*
X205732Y227854D01*
X205417Y227354D01*
X205035Y227020D01*
X204528Y226772D01*
X203264D01*
G01X209752D02*
Y231772D01*
X208992Y230772D01*
G01Y226772D02*
X210512D01*
G01X203657Y239370D02*
Y244370D01*
X204921D01*
X205429Y244118D01*
X205811Y243787D01*
X206126Y243287D01*
X206378Y242705D01*
X206441Y241870D01*
X206378Y241035D01*
X206126Y240453D01*
X205811Y239953D01*
X205429Y239618D01*
X204921Y239370D01*
X203657D01*
G01X208945Y243535D02*
X209323Y244035D01*
X209768Y244287D01*
X210276Y244370D01*
X210909Y244205D01*
X211350Y243787D01*
X211476Y243287D01*
X211413Y242787D01*
X211161Y242370D01*
X209894Y241535D01*
X209323Y240953D01*
X208945Y240118D01*
X208819Y239370D01*
X211476D01*
G01X231823Y48819D02*
Y53819D01*
X233406D01*
X233913Y53567D01*
X234228Y53236D01*
X234354Y52567D01*
X234228Y51902D01*
X233850Y51484D01*
X233406Y51236D01*
X231823D01*
G01X233406D02*
X234354Y48819D01*
G01X238185D02*
Y53819D01*
X237425Y52819D01*
G01Y48819D02*
X238945D01*
G01X241894Y49567D02*
X242272Y49154D01*
X242717Y48902D01*
X243283Y48819D01*
X243854Y48984D01*
X244299Y49319D01*
X244614Y49902D01*
X244677Y50567D01*
X244551Y51236D01*
X244236Y51654D01*
X243791Y51984D01*
X243350Y52067D01*
X242906Y51984D01*
X242335Y51654D01*
X242524Y53819D01*
X244236D01*
G01X257500Y76500D02*
Y48500D01*
X247500D01*
Y76500D01*
X257500D01*
G01X246059Y110512D02*
Y106929D01*
X246311Y106177D01*
X246819Y105677D01*
X247449Y105512D01*
X248083Y105677D01*
X248591Y106177D01*
X248843Y106929D01*
Y110512D01*
G01X253311Y105512D02*
Y110512D01*
X250965Y106929D01*
X254134D01*
G01X239000Y155000D02*
X245000D01*
X247500Y152500D01*
X252500D01*
X255000Y155000D01*
X261000D01*
Y115000D01*
X239000D01*
Y155000D01*
G01X262500Y214000D02*
Y186000D01*
X252500D01*
Y214000D01*
X262500D01*
G01X236154Y195669D02*
Y200669D01*
X237736D01*
X238244Y200417D01*
X238559Y200087D01*
X238685Y199417D01*
X238559Y198752D01*
X238181Y198335D01*
X237736Y198087D01*
X236154D01*
G01X237736D02*
X238685Y195669D01*
G01X242516D02*
Y200669D01*
X241756Y199669D01*
G01Y195669D02*
X243276D01*
G01X248378D02*
Y200669D01*
X246031Y197087D01*
X249201D01*
G01X276311Y48819D02*
Y53819D01*
X277894D01*
X278402Y53567D01*
X278717Y53236D01*
X278843Y52567D01*
X278717Y51902D01*
X278339Y51484D01*
X277894Y51236D01*
X276311D01*
G01X277894D02*
X278843Y48819D01*
G01X282673D02*
Y53819D01*
X281913Y52819D01*
G01Y48819D02*
X283433D01*
G01X287646D02*
X287772Y49902D01*
X287965Y50819D01*
X288217Y51654D01*
X288535Y52567D01*
X289039Y53819D01*
X286508D01*
G01X265000Y48500D02*
Y76500D01*
X275000D01*
Y48500D01*
X265000D01*
G01X270000Y186000D02*
Y214000D01*
X280000D01*
Y186000D01*
X270000D01*
G01X281618Y196063D02*
Y201063D01*
X283201D01*
X283709Y200811D01*
X284024Y200480D01*
X284150Y199811D01*
X284024Y199146D01*
X283646Y198728D01*
X283201Y198480D01*
X281618D01*
G01X283201D02*
X284150Y196063D01*
G01X286906Y196646D02*
X287350Y196228D01*
X287854Y196063D01*
X288362Y196228D01*
X288807Y196728D01*
X289122Y197480D01*
X289248Y198228D01*
Y199146D01*
X289122Y199898D01*
X288807Y200563D01*
X288425Y200898D01*
X287980Y201063D01*
X287476Y200898D01*
X287094Y200563D01*
X286843Y200063D01*
X286717Y199398D01*
X286843Y198815D01*
X287157Y198228D01*
X287539Y197898D01*
X287980Y197811D01*
X288488Y197980D01*
X288870Y198398D01*
X289248Y199146D01*
G01X379016Y113110D02*
X369016D01*
Y133110D01*
X379016D01*
Y113110D01*
G01X370201Y138008D02*
X370516Y137508D01*
X370898Y137173D01*
X371339Y137008D01*
X371846Y137173D01*
X372228Y137508D01*
X372606Y138008D01*
X372732Y138673D01*
Y142008D01*
G01X376563Y137008D02*
Y142008D01*
X375803Y141008D01*
G01Y137008D02*
X377323D01*
M02*
