G04 ================== begin FILE IDENTIFICATION RECORD ==================*
G04 Layout Name:  C:/WORK_ORCAD/DA_CONVERTOR/allegro/DA_CONVERTOR.brd*
G04 Film Name:    SoldermaskBottom*
G04 File Format:  Gerber RS274X*
G04 File Origin:  Cadence Allegro 17.2-P019*
G04 Origin Date:  Wed Jul 31 15:49:11 2019*
G04 *
G04 Layer:  VIA CLASS/SOLDERMASK_BOTTOM*
G04 Layer:  PIN/SOLDERMASK_BOTTOM*
G04 Layer:  PACKAGE GEOMETRY/SOLDERMASK_BOTTOM*
G04 Layer:  BOARD GEOMETRY/SOLDERMASK_BOTTOM*
G04 *
G04 Offset:    (0.000 0.000)*
G04 Mirror:    No*
G04 Mode:      Positive*
G04 Rotation:  0*
G04 FullContactRelief:  No*
G04 UndefLineWidth:     0.000*
G04 ================== end FILE IDENTIFICATION RECORD ====================*
%FSLAX25Y25*MOIN*%
%IR0*IPPOS*OFA0.00000B0.00000*MIA0B0*SFA1.00000B1.00000*%
%ADD12C,.08*%
%ADD14R,.08X.08*%
%ADD11C,.075*%
%ADD10C,.145*%
%ADD13R,.075X.075*%
%LPD*%
G75*
G54D10*
X19685Y19685D03*
Y255906D03*
X374016Y19685D03*
Y255906D03*
G54D11*
X47500Y50000D03*
Y80000D03*
X19685Y107795D03*
Y117795D03*
Y127795D03*
Y137795D03*
X57500Y50000D03*
X67500D03*
X77500D03*
X57500Y80000D03*
X67500D03*
X77500D03*
X87500Y50000D03*
X97500D03*
X107500D03*
X87500Y80000D03*
X97500D03*
X80000Y120000D03*
Y130000D03*
Y140000D03*
X110000Y120000D03*
Y130000D03*
Y140000D03*
Y150000D03*
X155000Y120000D03*
Y130000D03*
Y140000D03*
X185000Y120000D03*
Y130000D03*
Y140000D03*
Y150000D03*
X235000Y120000D03*
Y130000D03*
Y140000D03*
X265000Y120000D03*
Y130000D03*
Y140000D03*
Y150000D03*
X374016Y128110D03*
Y118110D03*
G54D12*
X72500Y185000D03*
Y197500D03*
Y222500D03*
Y210000D03*
X100000Y170000D03*
X80000D03*
X112500Y185000D03*
Y197500D03*
Y222500D03*
Y210000D03*
X152500Y37500D03*
Y67500D03*
Y52500D03*
Y82500D03*
X167500Y172500D03*
Y185000D03*
Y197500D03*
Y210000D03*
X166500Y240000D03*
X192500Y37500D03*
Y67500D03*
Y52500D03*
Y82500D03*
X217500Y42500D03*
Y82500D03*
X222500Y132500D03*
Y172500D03*
X207500D03*
Y185000D03*
Y197500D03*
Y210000D03*
X203500Y227500D03*
X252500Y42500D03*
Y82500D03*
X257500Y180000D03*
Y220000D03*
X270000Y42500D03*
Y82500D03*
X275000Y180000D03*
Y220000D03*
G54D13*
X107500Y80000D03*
X80000Y150000D03*
X155000D03*
X235000D03*
G54D14*
X167500Y227500D03*
X202500Y240000D03*
M02*
