G04 ================== begin FILE IDENTIFICATION RECORD ==================*
G04 Layout Name:  C:/WORK_ORCAD/DA_CONVERTOR/allegro/DA_CONVERTOR.brd*
G04 Film Name:    TOP*
G04 File Format:  Gerber RS274X*
G04 File Origin:  Cadence Allegro 17.2-P019*
G04 Origin Date:  Wed Jul 31 15:49:11 2019*
G04 *
G04 Layer:  ETCH/TOP*
G04 Layer:  PIN/TOP*
G04 Layer:  VIA CLASS/TOP*
G04 *
G04 Offset:    (0.000 0.000)*
G04 Mirror:    No*
G04 Mode:      Positive*
G04 Rotation:  0*
G04 FullContactRelief:  No*
G04 UndefLineWidth:     0.000*
G04 ================== end FILE IDENTIFICATION RECORD ====================*
%FSLAX25Y25*MOIN*%
%IR0*IPPOS*OFA0.00000B0.00000*MIA0B0*SFA1.00000B1.00000*%
%ADD11C,.06*%
%ADD12C,.065*%
%ADD13R,.06X.06*%
%ADD14C,.055*%
%ADD15R,.055X.055*%
%ADD10C,.025*%
%ADD16C,.03937*%
%ADD17C,.019685*%
G75*
%LPD*%
G75*
G54D10*
X19685Y19685D03*
Y255906D03*
X374016Y19685D03*
Y255906D03*
G54D11*
X47500Y50000D03*
Y80000D03*
X19685Y107795D03*
Y117795D03*
Y127795D03*
Y137795D03*
X57500Y50000D03*
X67500D03*
X77500D03*
X57500Y80000D03*
X67500D03*
X77500D03*
X87500Y50000D03*
X97500D03*
X107500D03*
X87500Y80000D03*
X97500D03*
X80000Y120000D03*
Y130000D03*
Y140000D03*
X110000Y120000D03*
Y130000D03*
Y140000D03*
Y150000D03*
X155000Y120000D03*
Y130000D03*
Y140000D03*
X185000Y120000D03*
Y130000D03*
Y140000D03*
Y150000D03*
X235000Y120000D03*
Y130000D03*
Y140000D03*
X265000Y120000D03*
Y130000D03*
Y140000D03*
Y150000D03*
X374016Y128110D03*
Y118110D03*
G54D12*
X72500Y185000D03*
Y197500D03*
Y222500D03*
Y210000D03*
X100000Y170000D03*
X80000D03*
X112500Y185000D03*
Y197500D03*
Y222500D03*
Y210000D03*
X152500Y37500D03*
Y67500D03*
Y52500D03*
Y82500D03*
X167500Y172500D03*
Y185000D03*
Y197500D03*
Y210000D03*
X192500Y37500D03*
Y67500D03*
Y52500D03*
Y82500D03*
X217500Y42500D03*
Y82500D03*
X222500Y132500D03*
Y172500D03*
X207500D03*
Y185000D03*
Y197500D03*
Y210000D03*
X252500Y42500D03*
Y82500D03*
X257500Y180000D03*
Y220000D03*
X270000Y42500D03*
Y82500D03*
X275000Y180000D03*
Y220000D03*
G54D13*
X107500Y80000D03*
X80000Y150000D03*
X155000D03*
X235000D03*
G54D14*
X166500Y240000D03*
X203500Y227500D03*
G54D15*
X167500D03*
X202500Y240000D03*
G54D16*
G01X80000Y107795D02*
X19685D01*
G01X110000Y140000D02*
X96437D01*
X92500Y143937D01*
Y156063D01*
X88563Y160000D01*
X30000D01*
X19685Y149685D01*
Y137795D01*
G01X87500Y80000D02*
Y85472D01*
X82972Y90000D01*
X61437D01*
X57500Y86063D01*
Y80000D01*
G01X80000Y120000D02*
Y107795D01*
G01X155000D02*
X80000D01*
G01X207500Y172500D02*
X190000D01*
X180000Y162500D01*
X165000D01*
X157500Y170000D01*
X100000D01*
G01X185000Y140000D02*
X177500D01*
X157500Y160000D01*
X145000D01*
X140000Y155000D01*
Y145000D01*
X135000Y140000D01*
X110000D01*
G01X166500Y240000D02*
X152500D01*
X145000Y232500D01*
Y212500D01*
X142500Y210000D01*
X112500D01*
G01X235000Y120000D02*
Y110000D01*
X232795Y107795D01*
X155000D01*
G01Y120000D02*
Y107795D01*
G01X265000Y140000D02*
X261437D01*
X257500Y143937D01*
Y155000D01*
X252213Y160287D01*
X197787D01*
X195000Y157500D01*
Y142500D01*
X192500Y140000D01*
X185000D01*
G01X203500Y227500D02*
X188937D01*
X185000Y231437D01*
Y235000D01*
X180000Y240000D01*
X166500D01*
G01X222500Y172500D02*
X207500D01*
G01X374016Y128110D02*
X368543D01*
X367933Y127500D01*
X357500D01*
X350000Y135000D01*
Y167500D01*
X345000Y172500D01*
X222500D01*
G01X203500Y227500D02*
X253563D01*
X257500Y223563D01*
Y220000D01*
G54D17*
G01X152500Y37500D02*
X147500Y32500D01*
X50000D01*
X47500Y35000D01*
Y50000D01*
G01X252500Y42500D02*
Y67500D01*
X245000Y75000D01*
X147500D01*
X130000Y57500D01*
X60000D01*
X57500Y55000D01*
Y50000D01*
G01X77500D02*
Y40000D01*
X80000Y37500D01*
X140531D01*
X142500Y39469D01*
Y48031D01*
X146969Y52500D01*
X152500D01*
G01X270000Y82500D02*
Y92500D01*
X267500Y95000D01*
X110000D01*
X107500Y92500D01*
Y80000D01*
G01X192500Y52500D02*
X175000D01*
X172500Y55000D01*
Y65000D01*
X170000Y67500D01*
X152500D01*
G01Y82500D02*
Y88031D01*
X154469Y90000D01*
X217500D01*
G01X270000Y42500D02*
Y36969D01*
X268031Y35000D01*
X220000D01*
X217500Y37500D01*
Y42500D01*
G01Y90000D02*
X250000D01*
X252500Y87500D01*
Y82500D01*
G01X217500D02*
Y90000D01*
G01X374016Y118110D02*
X369528D01*
X368917Y117500D01*
X287500D01*
X275000Y130000D01*
X265000D01*
G01X257500Y180000D02*
X275000D01*
M02*
